<mxfile host="65bd71144e">
    <diagram id="qzYFDQAPI1iwqmBfCDzH" name="IF">
        <mxGraphModel dx="474" dy="534" grid="1" gridSize="10" guides="1" tooltips="1" connect="1" arrows="1" fold="1" page="1" pageScale="1" pageWidth="827" pageHeight="1169" math="0" shadow="0">
            <root>
                <mxCell id="0"/>
                <mxCell id="1" parent="0"/>
                <mxCell id="6" style="edgeStyle=none;html=1;exitX=0.5;exitY=1;exitDx=0;exitDy=0;entryX=0.5;entryY=0;entryDx=0;entryDy=0;" edge="1" parent="1" source="2" target="4">
                    <mxGeometry relative="1" as="geometry"/>
                </mxCell>
                <mxCell id="2" value="Start" style="rounded=1;whiteSpace=wrap;html=1;" vertex="1" parent="1">
                    <mxGeometry x="190" y="100" width="120" height="60" as="geometry"/>
                </mxCell>
                <mxCell id="3" value="Stop" style="rounded=1;whiteSpace=wrap;html=1;" vertex="1" parent="1">
                    <mxGeometry x="190" y="525" width="120" height="60" as="geometry"/>
                </mxCell>
                <mxCell id="7" style="edgeStyle=none;html=1;exitX=0.5;exitY=1;exitDx=0;exitDy=0;" edge="1" parent="1" source="4" target="5">
                    <mxGeometry relative="1" as="geometry"/>
                </mxCell>
                <mxCell id="11" value="" style="edgeStyle=none;html=1;entryX=0.45;entryY=0.55;entryDx=0;entryDy=0;entryPerimeter=0;" edge="1" parent="1" source="4" target="10">
                    <mxGeometry relative="1" as="geometry"/>
                </mxCell>
                <mxCell id="4" value="a&amp;gt;b" style="rhombus;whiteSpace=wrap;html=1;" vertex="1" parent="1">
                    <mxGeometry x="210" y="230" width="80" height="80" as="geometry"/>
                </mxCell>
                <mxCell id="8" style="edgeStyle=none;html=1;exitDx=0;exitDy=0;startArrow=none;" edge="1" parent="1" source="14" target="3">
                    <mxGeometry relative="1" as="geometry"/>
                </mxCell>
                <mxCell id="5" value="Anweisung" style="rounded=0;whiteSpace=wrap;html=1;" vertex="1" parent="1">
                    <mxGeometry x="190" y="380" width="120" height="60" as="geometry"/>
                </mxCell>
                <mxCell id="13" value="" style="edgeStyle=none;html=1;" edge="1" parent="1" source="10" target="12">
                    <mxGeometry relative="1" as="geometry">
                        <Array as="points">
                            <mxPoint x="460" y="370"/>
                        </Array>
                    </mxGeometry>
                </mxCell>
                <mxCell id="18" value="Nein" style="edgeLabel;html=1;align=center;verticalAlign=middle;resizable=0;points=[];" vertex="1" connectable="0" parent="13">
                    <mxGeometry x="-0.0667" y="-2" relative="1" as="geometry">
                        <mxPoint as="offset"/>
                    </mxGeometry>
                </mxCell>
                <mxCell id="10" value="" style="shape=waypoint;sketch=0;size=6;pointerEvents=1;points=[];fillColor=default;resizable=0;rotatable=0;perimeter=centerPerimeter;snapToPoint=1;" vertex="1" parent="1">
                    <mxGeometry x="440" y="250" width="40" height="40" as="geometry"/>
                </mxCell>
                <mxCell id="15" value="" style="edgeStyle=none;html=1;" edge="1" parent="1" source="12" target="14">
                    <mxGeometry relative="1" as="geometry"/>
                </mxCell>
                <mxCell id="12" value="" style="shape=waypoint;sketch=0;size=6;pointerEvents=1;points=[];fillColor=default;resizable=0;rotatable=0;perimeter=centerPerimeter;snapToPoint=1;" vertex="1" parent="1">
                    <mxGeometry x="440" y="460" width="40" height="40" as="geometry"/>
                </mxCell>
                <mxCell id="14" value="" style="shape=waypoint;sketch=0;size=6;pointerEvents=1;points=[];fillColor=default;resizable=0;rotatable=0;perimeter=centerPerimeter;snapToPoint=1;" vertex="1" parent="1">
                    <mxGeometry x="230" y="460" width="40" height="40" as="geometry"/>
                </mxCell>
                <mxCell id="16" value="" style="edgeStyle=none;html=1;exitX=0.5;exitY=1;exitDx=0;exitDy=0;endArrow=none;" edge="1" parent="1" source="5" target="14">
                    <mxGeometry relative="1" as="geometry">
                        <mxPoint x="250" y="440" as="sourcePoint"/>
                        <mxPoint x="250" y="525" as="targetPoint"/>
                    </mxGeometry>
                </mxCell>
            </root>
        </mxGraphModel>
    </diagram>
    <diagram name="IF_ELSE" id="AcTaG1lb3-s2RG4pOSUZ">
        <mxGraphModel dx="474" dy="534" grid="1" gridSize="10" guides="1" tooltips="1" connect="1" arrows="1" fold="1" page="1" pageScale="1" pageWidth="827" pageHeight="1169" math="0" shadow="0">
            <root>
                <mxCell id="Db6-U4y8q2oNplCDMPGf-0"/>
                <mxCell id="Db6-U4y8q2oNplCDMPGf-1" parent="Db6-U4y8q2oNplCDMPGf-0"/>
                <mxCell id="Db6-U4y8q2oNplCDMPGf-2" style="edgeStyle=none;html=1;exitX=0.5;exitY=1;exitDx=0;exitDy=0;entryX=0.5;entryY=0;entryDx=0;entryDy=0;" edge="1" parent="Db6-U4y8q2oNplCDMPGf-1" source="Db6-U4y8q2oNplCDMPGf-3" target="Db6-U4y8q2oNplCDMPGf-7">
                    <mxGeometry relative="1" as="geometry"/>
                </mxCell>
                <mxCell id="Db6-U4y8q2oNplCDMPGf-3" value="Start" style="rounded=1;whiteSpace=wrap;html=1;" vertex="1" parent="Db6-U4y8q2oNplCDMPGf-1">
                    <mxGeometry x="190" y="100" width="120" height="60" as="geometry"/>
                </mxCell>
                <mxCell id="Db6-U4y8q2oNplCDMPGf-4" value="Stop" style="rounded=1;whiteSpace=wrap;html=1;" vertex="1" parent="Db6-U4y8q2oNplCDMPGf-1">
                    <mxGeometry x="190" y="525" width="120" height="60" as="geometry"/>
                </mxCell>
                <mxCell id="ucsDL9UYhizMoJz4tc8E-4" value="" style="edgeStyle=none;html=1;" edge="1" parent="Db6-U4y8q2oNplCDMPGf-1" source="Db6-U4y8q2oNplCDMPGf-7">
                    <mxGeometry relative="1" as="geometry">
                        <mxPoint x="400" y="380" as="targetPoint"/>
                        <Array as="points">
                            <mxPoint x="400" y="270"/>
                        </Array>
                    </mxGeometry>
                </mxCell>
                <mxCell id="ucsDL9UYhizMoJz4tc8E-5" style="edgeStyle=none;html=1;exitX=0;exitY=0.5;exitDx=0;exitDy=0;entryX=0.5;entryY=0;entryDx=0;entryDy=0;" edge="1" parent="Db6-U4y8q2oNplCDMPGf-1" source="Db6-U4y8q2oNplCDMPGf-7" target="Db6-U4y8q2oNplCDMPGf-9">
                    <mxGeometry relative="1" as="geometry">
                        <Array as="points">
                            <mxPoint x="90" y="270"/>
                        </Array>
                    </mxGeometry>
                </mxCell>
                <mxCell id="Db6-U4y8q2oNplCDMPGf-7" value="a&amp;gt;b" style="rhombus;whiteSpace=wrap;html=1;" vertex="1" parent="Db6-U4y8q2oNplCDMPGf-1">
                    <mxGeometry x="210" y="230" width="80" height="80" as="geometry"/>
                </mxCell>
                <mxCell id="ucsDL9UYhizMoJz4tc8E-11" style="edgeStyle=none;html=1;exitX=0.5;exitY=1;exitDx=0;exitDy=0;entryX=0;entryY=0.5;entryDx=0;entryDy=0;" edge="1" parent="Db6-U4y8q2oNplCDMPGf-1" source="Db6-U4y8q2oNplCDMPGf-9" target="Db6-U4y8q2oNplCDMPGf-4">
                    <mxGeometry relative="1" as="geometry">
                        <mxPoint x="250" y="500" as="targetPoint"/>
                        <Array as="points">
                            <mxPoint x="90" y="555"/>
                        </Array>
                    </mxGeometry>
                </mxCell>
                <mxCell id="Db6-U4y8q2oNplCDMPGf-9" value="Anweisung" style="rounded=0;whiteSpace=wrap;html=1;" vertex="1" parent="Db6-U4y8q2oNplCDMPGf-1">
                    <mxGeometry x="30" y="380" width="120" height="60" as="geometry"/>
                </mxCell>
                <mxCell id="ucsDL9UYhizMoJz4tc8E-9" style="edgeStyle=none;html=1;exitX=0.5;exitY=1;exitDx=0;exitDy=0;entryX=1;entryY=0.5;entryDx=0;entryDy=0;" edge="1" parent="Db6-U4y8q2oNplCDMPGf-1" source="ucsDL9UYhizMoJz4tc8E-0" target="Db6-U4y8q2oNplCDMPGf-4">
                    <mxGeometry relative="1" as="geometry">
                        <mxPoint x="250" y="500" as="targetPoint"/>
                        <Array as="points">
                            <mxPoint x="400" y="555"/>
                        </Array>
                    </mxGeometry>
                </mxCell>
                <mxCell id="ucsDL9UYhizMoJz4tc8E-0" value="Anweisung" style="rounded=0;whiteSpace=wrap;html=1;" vertex="1" parent="Db6-U4y8q2oNplCDMPGf-1">
                    <mxGeometry x="340" y="380" width="120" height="60" as="geometry"/>
                </mxCell>
            </root>
        </mxGraphModel>
    </diagram>
</mxfile>